<svg height="512pt" viewBox="0 0 511 512" width="512pt" xmlns="http://www.w3.org/2000/svg"><path d="m352.5 181.332031c0 94.257813-76.410156 170.667969-170.667969 170.667969-94.253906 0-170.664062-76.410156-170.664062-170.667969 0-94.253906 76.410156-170.664062 170.664062-170.664062 94.257813 0 170.667969 76.410156 170.667969 170.664062zm0 0" fill="#03a9f4"/><path d="m181.832031 362.667969c-99.988281 0-181.332031-81.34375-181.332031-181.335938 0-99.988281 81.34375-181.332031 181.332031-181.332031 99.992188 0 181.335938 81.34375 181.335938 181.332031 0 99.992188-81.34375 181.335938-181.335938 181.335938zm0-341.335938c-88.234375 0-160 71.765625-160 160s71.765625 160 160 160 160-71.765625 160-160-71.765625-160-160-160zm0 0"/><path d="m501.832031 512c-2.730469 0-5.460937-1.046875-7.550781-3.113281l-199.316406-199.320313c-4.160156-4.160156-4.160156-10.921875 0-15.082031s10.921875-4.160156 15.082031 0l199.316406 199.316406c4.160157 4.160157 4.160157 10.925781 0 15.085938-2.070312 2.066406-4.800781 3.113281-7.53125 3.113281zm0 0"/><path d="m181.832031 277.332031c-5.886719 0-10.664062-4.777343-10.664062-10.664062v-170.667969c0-5.886719 4.777343-10.667969 10.664062-10.667969 5.890625 0 10.667969 4.78125 10.667969 10.667969v170.667969c0 5.886719-4.777344 10.664062-10.667969 10.664062zm0 0"/><path d="m267.167969 192h-170.667969c-5.886719 0-10.667969-4.777344-10.667969-10.667969 0-5.886719 4.78125-10.664062 10.667969-10.664062h170.667969c5.886719 0 10.664062 4.777343 10.664062 10.664062 0 5.890625-4.777343 10.667969-10.664062 10.667969zm0 0"/></svg>